:SAMPLES-PER-SECOND 30
:FULLY-SPECIFIED
:DEGREES
548
root  6.03437 38.1448 1.65273 -179.997 -22.7029 173.709
RightUpLeg  -11.2421 12.8735 -8.64145
RightLeg  38.1984 5.97969 4.75731
RightFoot  -18.4261 -0.019915 1.81381
RightToes  -1.74624e-010 0 -3.6325e-017
Spine  14.2784 0.341435 -0.640049
Spine1  2.39066 0.49087 -1.34848
HEad  -11.49 0.438737 3.62047
LeftShoulder1  -0.209171 4.04087 -32.803
LeftArm  23.5402 5.30256 -37.7431
LeftForeArm  25.6357 -28.2583 -4.5425
LeftHand  0.0642349 7.48138 5.33354
RightShoulder  -0.809884 -5.75568 29.3457
RightArm  25.091 5.36729 43.6928
RightForeArm  14.4084 31.9924 6.22993
RightHand  -0.442119 7.74389 -4.26867
LeftUpLeg  -15.554 -1.57252 4.09083
LeftLeg  20.9933 -8.85312 -3.41145
LeftFoot  -3.84351 0.388267 -5.58175
LeftToes  2.27646e-009 -8.13696e-011 -1.44715e-011
549
root  5.41105 38.2215 1.98471 -178.905 -19.1134 173.579
RightUpLeg  -15.279 11.2528 -10.2768
RightLeg  40.717 5.67647 4.92606
RightFoot  -15.6401 0.0626948 4.31661
RightToes  -1.74624e-010 0 -3.6325e-017
Spine  16.1467 0.423951 -0.70046
Spine1  2.06358 0.861859 -2.96284
HEad  -10.9427 1.12755 3.2589
LeftShoulder1  -0.156232 3.91348 -32.0181
LeftArm  23.3105 2.33692 -38.6647
LeftForeArm  31.0813 -34.3729 -5.87051
LeftHand  -0.0225795 5.4679 4.22169
RightShoulder  -0.668301 -5.38761 28.7386
RightArm  28.7057 9.48994 46.7286
RightForeArm  17.2326 35.0768 6.87269
RightHand  -0.387019 8.2263 -3.66935
LeftUpLeg  -16.4964 0.229654 2.9285
LeftLeg  21.3365 -6.85564 -2.61456
LeftFoot  -3.54769 0.292429 -3.98781
LeftToes  2.27646e-009 -8.13696e-011 -1.44715e-011
550
root  4.84221 38.4149 2.31758 -177.779 -16.4779 174.202
RightUpLeg  -18.1301 8.61069 -10.0626
RightLeg  39.9169 3.60712 2.98333
RightFoot  -13.286 -0.0269814 3.71454
RightToes  -1.74624e-010 0 -3.6325e-017
Spine  17.7854 0.355989 -0.17944
Spine1  1.97511 1.0103 -3.49468
HEad  -9.55387 1.43854 2.55862
LeftShoulder1  -0.115258 3.81263 -31.2108
LeftArm  23.394 -0.191697 -40.381
LeftForeArm  35.0188 -40.6747 -7.36597
LeftHand  -0.0613618 4.18692 3.99722
RightShoulder  -0.459565 -4.84292 27.4346
RightArm  32.3558 12.4866 50.25
RightForeArm  19.9561 38.8826 7.7843
RightHand  -0.360405 8.51377 -3.38284
LeftUpLeg  -17.3592 1.96457 2.49103
LeftLeg  20.4169 -5.90401 -2.08438
LeftFoot  -2.7323 0.229881 -2.83586
LeftToes  2.27646e-009 -8.13696e-011 -1.44715e-011
551
root  4.32289 38.6836 2.60222 -176.328 -14.2738 175.151
RightUpLeg  -19.6005 6.15874 -8.9286
RightLeg  34.8672 2.22294 1.40698
RightFoot  -13.0726 -0.0386035 3.50514
RightToes  -1.74624e-010 0 -3.6325e-017
Spine  18.7176 0.289006 0.841935
Spine1  2.42862 1.30189 -4.13814
HEad  -7.20773 0.94238 2.48735
LeftShoulder1  -0.0454503 3.62725 -30.6627
LeftArm  25.1652 -3.10827 -42.1192
LeftForeArm  37.4991 -46.6201 -9.17113
LeftHand  -0.0560304 4.29228 3.93649
RightShoulder  -0.311114 -4.42082 26.7667
RightArm  36.6944 15.2272 52.9344
RightForeArm  23.1252 42.8219 8.82783
RightHand  -0.347684 8.7253 -3.2467
LeftUpLeg  -18.1787 3.96774 2.38328
LeftLeg  18.4541 -5.58146 -1.71452
LeftFoot  -1.58151 0.188675 -2.09648
LeftToes  2.27646e-009 -8.13696e-011 -1.44715e-011
552
root  3.89627 38.9419 2.82354 -174.915 -12.6386 175.867
RightUpLeg  -19.9186 4.59691 -7.52522
RightLeg  27.8056 2.28233 1.05678
RightFoot  -12.1411 -0.038209 4.17259
RightToes  -1.74624e-010 0 -3.6325e-017
Spine  19.7324 0.230859 1.25763
Spine1  2.96129 1.46473 -4.49289
HEad  -3.75545 0.015314 2.59934
LeftShoulder1  0.0611202 3.33502 -30.0966
LeftArm  26.7589 -5.46616 -43.7627
LeftForeArm  40.2409 -52.3145 -11.3151
LeftHand  -0.0823386 3.22776 3.59322
RightShoulder  -0.235091 -4.19777 26.3263
RightArm  40.6165 17.436 55.5234
RightForeArm  27.9226 46.7063 9.87828
RightHand  -0.154743 8.91426 -1.64035
LeftUpLeg  -18.6605 5.71595 2.17201
LeftLeg  16.0038 -5.54066 -1.56696
LeftFoot  -0.159826 0.137403 -1.40023
LeftToes  2.27646e-009 -8.13696e-011 -1.44715e-011
553
root  3.53468 39.2042 3.07895 -172.815 -12.1222 176.899
RightUpLeg  -21.3232 3.32655 -5.90092
RightLeg  22.4453 2.27755 0.837884
RightFoot  -8.63457 -0.0711623 0.378913
RightToes  -1.74624e-010 0 -3.6325e-017
Spine  20.0009 -0.243839 2.23395
Spine1  3.80479 1.12417 -4.36202
HEad  0.575845 -0.827447 2.26317
LeftShoulder1  0.125235 3.15095 -29.3447
LeftArm  28.3421 -7.72328 -45.5135
LeftForeArm  43.8454 -57.2109 -13.5793
LeftHand  -0.0850177 2.95497 3.45755
RightShoulder  -0.160253 -3.98147 25.5465
RightArm  43.7053 18.7582 58.8157
RightForeArm  33.0512 49.6554 10.6816
RightHand  -0.0382383 7.71752 -0.698282
LeftUpLeg  -19.9853 6.32437 2.36427
LeftLeg  13.067 -5.29859 -1.53351
LeftFoot  1.8193 0.0698909 -0.701254
LeftToes  2.27646e-009 -8.13696e-011 -1.44715e-011
